<svg id="Ebene_1" data-name="Ebene 1" xmlns="http://www.w3.org/2000/svg" xmlns:xlink="http://www.w3.org/1999/xlink" viewBox="0 0 1032.05 501"><defs><style>.cls-1{fill:url(#Unbenannter_Verlauf_6);}.cls-2{fill:none;stroke:#f9f9f8;}</style><linearGradient id="Unbenannter_Verlauf_6" x1="303.34" y1="319.52" x2="515.25" y2="169.53" gradientTransform="matrix(1, 0, 0, -1, 144, 446)" gradientUnits="userSpaceOnUse"><stop offset="0.14" stop-color="#f7bca6"/><stop offset="0.4" stop-color="#ffaf8f" stop-opacity="0.7"/><stop offset="0.8" stop-color="#d87472" stop-opacity="0.8"/><stop offset="1" stop-color="#d87472"/></linearGradient></defs><path class="cls-1" d="M898.05,0V53.37l-42.5,25-43-25-43,25v49l-42.5,25v49l-43,25v49l-43,24.5-42.5-24.5-42.5,24.5-43-24.5-42.5,24.5v49.5l-43,24.5-42.5-24.5-42.5,24.5-43-24.5-42.5,24.5v49.5l-43.5,25v52.5l-.5.13,819-1h0V0Z"/><path class="cls-2" d="M256.5,225.66,299.3,201l42.8,24.71v49.42l-42.8,24.71-42.8-24.71Z"/><path class="cls-2" d="M384.5,151.66,427.3,127l42.8,24.71v49.42l-42.8,24.71-42.8-24.71Z"/><path class="cls-2" d="M384.5,299.66,427.3,275l42.8,24.71v49.42l-42.8,24.71-42.8-24.71Z"/><path class="cls-2" d="M512.5,225.66,555.3,201l42.8,24.71v49.42l-42.8,24.71-42.8-24.71Z"/><path class="cls-2" d="M812,299.66,854.8,275l42.8,24.71v49.42l-42.8,24.71L812,349.08Z"/><path class="cls-2" d="M812,151.66,854.8,127l42.8,24.71v49.42l-42.8,24.71L812,201.08Z"/><path class="cls-2" d="M.5,77.66,43.3,53,86.1,77.66v49.42L43.3,151.79.5,127.08Z"/><path class="cls-2" d="M299.5,299.66,342.3,275l42.8,24.71v49.42l-42.8,24.71-42.8-24.71Z"/><path class="cls-2" d="M427.5,225.66,470.3,201l42.8,24.71v49.42l-42.8,24.71-42.8-24.71Z"/><path class="cls-2" d="M427.5,373.66,470.3,349l42.8,24.71v49.42l-42.8,24.71-42.8-24.71Z"/><path class="cls-2" d="M855,373.66,897.8,349l42.8,24.71v49.42l-42.8,24.71L855,423.08Z"/><path class="cls-2" d="M555.5,299.66,598.3,275l42.8,24.71v49.42l-42.8,24.71-42.8-24.71Z"/><path class="cls-2" d="M43.5,151.66,86.3,127l42.8,24.71v49.42L86.3,225.79,43.5,201.08Z"/><path class="cls-2" d="M342,225.66,384.8,201l42.8,24.71v49.42l-42.8,24.71L342,275.08Z"/><path class="cls-2" d="M470,151.66,512.8,127l42.8,24.71v49.42l-42.8,24.71L470,201.08Z"/><path class="cls-2" d="M769.5,77.66,812.3,53l42.8,24.71v49.42l-42.8,24.71-42.8-24.71Z"/><path class="cls-2" d="M470,299.66,512.8,275l42.8,24.71v49.42l-42.8,24.71L470,349.08Z"/><path class="cls-2" d="M769.5,373.66,812.3,349l42.8,24.71v49.42l-42.8,24.71-42.8-24.71Z"/><path class="cls-2" d="M598,225.66,640.8,201l42.8,24.71v49.42l-42.8,24.71L598,275.08Z"/><path class="cls-2" d="M897.5,299.66,940.3,275l42.8,24.71v49.42l-42.8,24.71-42.8-24.71Z"/><path class="cls-2" d="M897.5,151.66,940.3,127l42.8,24.71v49.42l-42.8,24.71-42.8-24.71Z"/><path class="cls-2" d="M86,77.66,128.8,53l42.8,24.71v49.42l-42.8,24.71L86,127.08Z"/></svg>