<?xml version="1.0" encoding="UTF-8"?><svg id="a" xmlns="http://www.w3.org/2000/svg" xmlns:xlink="http://www.w3.org/1999/xlink" viewBox="0 0 1032.05 501"><defs><style>.c{fill:none;stroke:#f9f9f8;}.d{fill:url(#b);}</style><linearGradient id="b" x1="650.12" y1="429.7" x2="960.79" y2="26" gradientTransform="matrix(1, 0, 0, 1, 0, 0)" gradientUnits="userSpaceOnUse"><stop offset="0" stop-color="#f7bca6"/><stop offset=".27" stop-color="#f8baa5"/><stop offset=".76" stop-color="#d87372"/></linearGradient></defs><polygon class="d" points="898.05 0 898.05 53.37 855.55 78.37 812.55 53.37 769.55 78.37 769.55 127.37 727.05 152.37 727.05 201.37 684.05 226.37 684.05 275.37 641.05 299.87 598.55 275.37 556.05 299.87 513.05 275.37 470.55 299.87 470.55 349.37 427.55 373.87 385.05 349.37 342.55 373.87 299.55 349.37 257.05 373.87 257.05 423.37 213.55 448.37 213.55 497.37 213.55 500.87 213.05 501 1032.05 500 1032.05 0 898.05 0"/><path class="c" d="M256.5,225.66l42.8-24.71,42.8,24.71v49.42l-42.8,24.71-42.8-24.71v-49.42Z"/><path class="c" d="M384.5,151.66l42.8-24.71,42.8,24.71v49.42l-42.8,24.71-42.8-24.71v-49.42Z"/><path class="c" d="M384.5,299.66l42.8-24.71,42.8,24.71v49.42l-42.8,24.71-42.8-24.71v-49.42Z"/><path class="c" d="M512.5,225.66l42.8-24.71,42.8,24.71v49.42l-42.8,24.71-42.8-24.71v-49.42Z"/><path class="c" d="M812,299.66l42.8-24.71,42.8,24.71v49.42l-42.8,24.71-42.8-24.71v-49.42Z"/><path class="c" d="M812,151.66l42.8-24.71,42.8,24.71v49.42l-42.8,24.71-42.8-24.71v-49.42Z"/><path class="c" d="M.5,77.66l42.8-24.71,42.8,24.71v49.42l-42.8,24.71L.5,127.08v-49.42Z"/><path class="c" d="M299.5,299.66l42.8-24.71,42.8,24.71v49.42l-42.8,24.71-42.8-24.71v-49.42Z"/><path class="c" d="M427.5,225.66l42.8-24.71,42.8,24.71v49.42l-42.8,24.71-42.8-24.71v-49.42Z"/><path class="c" d="M427.5,373.66l42.8-24.71,42.8,24.71v49.42l-42.8,24.71-42.8-24.71v-49.42Z"/><path class="c" d="M855,373.66l42.8-24.71,42.8,24.71v49.42l-42.8,24.71-42.8-24.71v-49.42Z"/><path class="c" d="M555.5,299.66l42.8-24.71,42.8,24.71v49.42l-42.8,24.71-42.8-24.71v-49.42Z"/><path class="c" d="M43.5,151.66l42.8-24.71,42.8,24.71v49.42l-42.8,24.71-42.8-24.71v-49.42Z"/><path class="c" d="M342,225.66l42.8-24.71,42.8,24.71v49.42l-42.8,24.71-42.8-24.71v-49.42Z"/><path class="c" d="M470,151.66l42.8-24.71,42.8,24.71v49.42l-42.8,24.71-42.8-24.71v-49.42Z"/><path class="c" d="M769.5,77.66l42.8-24.71,42.8,24.71v49.42l-42.8,24.71-42.8-24.71v-49.42Z"/><path class="c" d="M470,299.66l42.8-24.71,42.8,24.71v49.42l-42.8,24.71-42.8-24.71v-49.42Z"/><path class="c" d="M769.5,373.66l42.8-24.71,42.8,24.71v49.42l-42.8,24.71-42.8-24.71v-49.42Z"/><path class="c" d="M598,225.66l42.8-24.71,42.8,24.71v49.42l-42.8,24.71-42.8-24.71v-49.42Z"/><path class="c" d="M897.5,299.66l42.8-24.71,42.8,24.71v49.42l-42.8,24.71-42.8-24.71v-49.42Z"/><path class="c" d="M897.5,151.66l42.8-24.71,42.8,24.71v49.42l-42.8,24.71-42.8-24.71v-49.42Z"/><path class="c" d="M86,77.66l42.8-24.71,42.8,24.71v49.42l-42.8,24.71-42.8-24.71v-49.42Z"/></svg>